<?xml version="1.0" encoding="utf-8"?>
<!-- Generator: Adobe Illustrator 27.5.0, SVG Export Plug-In . SVG Version: 6.00 Build 0)  -->
<svg version="1.1" xmlns="http://www.w3.org/2000/svg" xmlns:xlink="http://www.w3.org/1999/xlink" x="0px" y="0px"
	 viewBox="0 0 500 500" style="enable-background:new 0 0 500 500;" xml:space="preserve">
<g id="BACKGROUND">
	<rect style="fill:#DEEFFD;" width="500" height="500"/>
</g>
<g id="OBJECTS">
	<g>
		<g>
			<g>
				<g>
					<polygon style="fill:#191E40;" points="235.204,257.047 213.67,257.047 216.715,236.274 238.249,236.274 					"/>
					<polygon style="fill:#1E245A;" points="239.003,257.047 217.469,257.047 220.515,236.274 242.049,236.274 					"/>
					<path style="fill:#1E245A;" d="M178.175,237.298h-7.957c-2.11,0-3.82-1.71-3.82-3.82v-69.167c0-2.11,1.71-3.82,3.82-3.82h7.957
						c2.11,0,3.82,1.71,3.82,3.82v69.167C181.995,235.587,180.285,237.298,178.175,237.298z"/>
					<path style="fill:#32398B;" d="M283.387,237.298H176.963c-2.018,0-3.654-1.636-3.654-3.654v-69.499
						c0-2.018,1.636-3.654,3.654-3.654h106.424c2.018,0,3.654,1.636,3.654,3.654v69.499
						C287.041,235.662,285.405,237.298,283.387,237.298z"/>
					
						<rect x="179.827" y="166.552" transform="matrix(-1 -1.224647e-16 1.224647e-16 -1 461.1148 392.8401)" style="fill:#D3DEFD;" width="101.461" height="59.737"/>
				</g>
				<path style="fill:#32398B;" d="M202.526,255.518h71.598c1.326,0,2.4,1.075,2.4,2.4l0,0c0,1.326-1.075,2.401-2.4,2.401h-71.598
					V255.518z"/>
				<path style="fill:#1E245A;" d="M181.283,255.518h21.243v4.801h-21.243c-1.326,0-2.4-1.075-2.4-2.401l0,0
					C178.883,256.593,179.957,255.518,181.283,255.518z"/>
			</g>
			<g>
				<path style="fill:#FFFFFF;" d="M272.778,219.782h-45.586c-1.121,0-2.029-0.908-2.029-2.029v-40.581
					c0-1.121,0.909-2.029,2.029-2.029h45.586c1.121,0,2.029,0.908,2.029,2.029v40.581
					C274.807,218.873,273.899,219.782,272.778,219.782z"/>
				<path style="fill:#FFFFFF;" d="M218.028,219.782h-29.204c-1.121,0-2.029-0.908-2.029-2.029v-20.015
					c0-1.121,0.908-2.029,2.029-2.029h29.204c1.121,0,2.029,0.908,2.029,2.029v20.015
					C220.057,218.873,219.148,219.782,218.028,219.782z"/>
				<g>
					<g>
						<path style="fill:#D3DEFD;" d="M215.558,212.742h-24.292c-0.38,0-0.687-0.308-0.687-0.687v-0.066
							c0-0.38,0.308-0.687,0.687-0.687h24.292c0.38,0,0.687,0.308,0.687,0.687v0.066
							C216.246,212.434,215.938,212.742,215.558,212.742z"/>
						<path style="fill:#D3DEFD;" d="M205.112,216.124h-13.846c-0.38,0-0.687-0.308-0.687-0.687v-0.066
							c0-0.38,0.308-0.687,0.687-0.687h13.846c0.38,0,0.687,0.308,0.687,0.687v0.066C205.8,215.816,205.492,216.124,205.112,216.124
							z"/>
					</g>
					<path style="fill:#D3DEFD;" d="M198.873,203.06c0,2.525-2.047,4.572-4.573,4.572c-2.525,0-4.572-2.047-4.572-4.572
						s2.047-4.572,4.572-4.572C196.826,198.487,198.873,200.535,198.873,203.06z"/>
				</g>
				<path style="fill:#676FBD;" d="M264.978,214.499h-10.573c-1.649,0-2.985-1.337-2.985-2.985v-10.573
					c0-1.649,1.336-2.985,2.985-2.985h10.573c1.649,0,2.985,1.336,2.985,2.985v10.573
					C267.964,213.162,266.627,214.499,264.978,214.499z"/>
				<g>
					<path style="fill:#FFFFFF;" d="M213.15,183.202h-25.387c-0.38,0-0.687-0.308-0.687-0.687v-0.066
						c0-0.38,0.308-0.687,0.687-0.687h25.387c0.38,0,0.687,0.308,0.687,0.687v0.066C213.837,182.895,213.529,183.202,213.15,183.202
						z"/>
					<path style="fill:#FFFFFF;" d="M213.15,192.272h-25.387c-0.38,0-0.687-0.308-0.687-0.687v-0.066
						c0-0.38,0.308-0.687,0.687-0.687h25.387c0.38,0,0.687,0.308,0.687,0.687v0.066C213.837,191.964,213.529,192.272,213.15,192.272
						z"/>
					<path style="fill:#FFFFFF;" d="M219.189,187.718h-31.426c-0.38,0-0.687-0.308-0.687-0.687v-0.066
						c0-0.38,0.308-0.687,0.687-0.687h31.426c0.38,0,0.687,0.308,0.687,0.687v0.066C219.876,187.41,219.569,187.718,219.189,187.718
						z"/>
				</g>
			</g>
		</g>
		<g>
			<g>
				<path style="fill:#C8D8F2;" d="M147.616,253.96c1.768,0,5.86-0.23,8.653-2.178c1.84-1.283,2.774-3.024,2.774-5.176
					c0-2.379-0.961-4.247-2.857-5.556c-3.063-2.115-7.392-1.837-7.576-1.826l0.342,2.896c0.03,0.003,2.868-0.159,4.659,1.087
					c1.055,0.735,1.588,1.88,1.588,3.398c0,1.326-0.503,2.32-1.535,3.038c-2.309,1.61-6.551,1.397-6.592,1.397l-0.315,2.896
					C146.809,253.94,147.12,253.96,147.616,253.96z"/>
				<polygon style="fill:#C8D8F2;" points="151.318,233.427 123.196,233.427 127.363,260.076 146.944,260.076 				"/>
			</g>
			<path style="fill:#FFFFFF;" d="M137.076,226.537c1.831-1.371,3.328-2.8,4.751-4.585c1.363-1.781,2.585-3.893,3.112-6.525
				c0.553-2.62-0.007-5.754-1.443-8.13c-1.416-2.39-3.335-4.116-5.248-5.506c-0.263-0.191-0.451-0.339-0.628-0.48l-0.555-0.437
				l-1.085-0.883c-0.707-0.593-1.396-1.189-2.031-1.791c-1.248-1.171-2.426-2.488-2.781-3.352c-0.174-0.403-0.025-0.605,0.207-0.152
				c0.095,0.206,0.173,0.556,0.182,0.808c0.01,0.265-0.008,0.434,0.05,0.461c0.055,0.084,0.433-0.263,0.935-0.63
				c0.511-0.386,1.174-0.855,1.897-1.348c3.31-2.254,4.166-6.763,1.912-10.073c-2.254-3.31-6.764-4.166-10.073-1.912
				c-0.453,0.308-0.859,0.659-1.219,1.042l-0.147,0.161c-0.748,0.81-1.534,1.673-2.37,2.719c-0.828,1.071-1.741,2.24-2.574,4.084
				c-0.83,1.731-1.371,4.574-0.73,6.968c0.596,2.395,1.785,3.935,2.808,5.075c1.055,1.131,2.082,1.926,3.078,2.624
				c0.997,0.688,1.977,1.293,2.941,1.819c0.967,0.54,1.922,1.021,2.875,1.481l2.764,1.276c1.426,0.654,2.645,1.448,3.455,2.314
				c0.786,0.872,1.24,1.785,1.282,3.077c0.066,2.596-1.857,6.111-4.096,8.687l-0.121,0.139c-0.764,0.878-0.671,2.21,0.208,2.973
				C135.193,227.103,136.298,227.119,137.076,226.537z"/>
		</g>
		<g>
			<g>
				<path style="fill:#BACCE7;" d="M94.235,285.007h-5.013v114.796c0,1.384,1.122,2.507,2.507,2.507h2.507h2.507
					c1.384,0,2.507-1.122,2.507-2.507V285.007H94.235z"/>
				<polygon style="opacity:0.53;fill:#D1D1D1;" points="99.248,292.209 89.222,287.159 89.222,285.007 99.248,285.007 				"/>
			</g>
			<g>
				<path style="fill:#BACCE7;" d="M136.443,402.309h-5.013c-1.384,0-2.507-1.122-2.507-2.507V285.007h10.026v114.796
					C138.949,401.187,137.827,402.309,136.443,402.309z"/>
				<polygon style="opacity:0.53;fill:#D1D1D1;" points="138.949,292.209 128.923,287.159 128.923,285.007 138.949,285.007 				"/>
			</g>
			<g>
				<path style="fill:#ABC0DA;" d="M368.597,285.007h-5.013v114.796c0,1.384,1.122,2.507,2.506,2.507h2.507h2.507
					c1.384,0,2.507-1.122,2.507-2.507V285.007H368.597z"/>
				<polygon style="fill:#7280A6;" points="373.61,292.209 363.584,287.159 363.584,285.007 373.61,285.007 				"/>
			</g>
			<g>
				<path style="fill:#BACCE7;" d="M410.805,402.309h-5.013c-1.384,0-2.507-1.122-2.507-2.507V285.007h10.026v114.796
					C413.311,401.187,412.189,402.309,410.805,402.309z"/>
				<polygon style="opacity:0.53;fill:#D1D1D1;" points="413.311,292.209 403.285,287.159 403.285,285.007 413.311,285.007 				"/>
			</g>
			
				<rect x="123.489" y="260.31" transform="matrix(-1 -1.224647e-16 1.224647e-16 -1 556.3458 531.1516)" style="fill:#6276CC;" width="309.368" height="10.533"/>
			
				<rect x="68.492" y="260.31" transform="matrix(-1 -1.224647e-16 1.224647e-16 -1 191.9806 531.1516)" style="fill:#7C91E1;" width="54.997" height="10.533"/>
			
				<rect x="89.222" y="275.485" transform="matrix(-1 -1.224647e-16 1.224647e-16 -1 218.2837 560.4917)" style="fill:#7C91E1;" width="39.84" height="9.522"/>
			
				<rect x="89.222" y="270.976" transform="matrix(-1 -1.224647e-16 1.224647e-16 -1 502.5331 546.461)" style="fill:#4F65B7;" width="324.089" height="4.509"/>
			
				<rect x="129.062" y="275.485" transform="matrix(-1 -1.224647e-16 1.224647e-16 -1 542.373 560.4917)" style="fill:#6276CC;" width="284.249" height="9.522"/>
		</g>
		<g>
			<g>
				
					<rect x="296.117" y="370.781" transform="matrix(-1 -1.224647e-16 1.224647e-16 -1 606.108 759.2339)" style="fill:#E8C0B3;" width="13.875" height="17.672"/>
				<path style="fill:#141627;" d="M310.05,384.761l0.673,0.481c1.062,0.759,1.692,1.983,1.692,3.288v11.942h-36.321l0.228-2.37
					c0.377-3.926,2.957-7.294,6.648-8.683l13.146-4.658H310.05z"/>
				<rect x="292.34" y="306.887" style="fill:#5B65AD;" width="24.16" height="70.752"/>
			</g>
			<polygon style="fill:#E8C0B3;" points="259.198,249.168 244.295,249.168 244.295,260.319 264.584,260.319 264.584,249.304 			"/>
			
				<rect x="248.501" y="370.781" transform="matrix(-1 -1.224647e-16 1.224647e-16 -1 510.8768 759.2339)" style="fill:#E8C0B3;" width="13.875" height="17.672"/>
			<path style="fill:#141627;" d="M262.434,384.761l0.673,0.481c1.062,0.759,1.692,1.983,1.692,3.288v11.942h-36.321l0.228-2.37
				c0.378-3.926,2.957-7.294,6.648-8.683l13.146-4.658H262.434z"/>
			<path style="fill:#E8C0B3;" d="M306.728,158.791v28.222c0,5.019,3.904,9.173,8.914,9.483l13.887,0.281v-37.986H306.728z"/>
			<path style="fill:#E8C0B3;" d="M308.317,174.516l-4.618,3.8c-0.5,0.411-0.789,1.024-0.789,1.671l0,0
				c0,1.195,0.969,2.164,2.164,2.164h5.471L308.317,174.516z"/>
			<polygon style="fill:#E8C0B3;" points="330.003,203.502 349.479,203.502 346.459,178.965 326.983,178.965 			"/>
			<path style="fill:#1E245A;" d="M314.387,180.524L314.387,180.524c0.274-0.542,0.417-1.141,0.417-1.749v-11.725h6.82l0,29.601
				h-3.763c-7.752,0-11.134-4.437-11.134-10.586v-3.414h4.2C312.39,182.652,313.727,181.829,314.387,180.524z"/>
			<path style="fill:#1E245A;" d="M326.983,178.965L326.983,178.965c0,3.002,2.434,5.436,5.436,5.436h14.706
				c3.002,0,5.436-2.434,5.436-5.436v-21.042c0-6.846-5.55-12.396-12.396-12.396h-23.31l-5.284,10.631
				c-1.283,17.317,14.752,13.629,14.752,13.629L326.983,178.965z"/>
			<path style="fill:#1E245A;" d="M311.516,158.791c0,0-4.915,7.789-12.291-0.709c0,0,6.564,1.283,6.564-5.452
				c0-6.734,4.757-7.522,11.067-7.103c4.833,0.321,5.619,8.053,5.619,8.053L311.516,158.791z"/>
			<circle style="fill:#E8C0B3;" cx="326.983" cy="173.008" r="5.957"/>
			<path style="fill:#676FBD;" d="M268.688,377.711l0.363-61.257l52.462-1.591l-0.731-24.148l-64.107,1.944
				c-6.499,0.196-11.676,5.502-11.714,12.002l-0.432,72.906L268.688,377.711z"/>
			<path style="fill:#2B3285;" d="M328.599,308.397h48.606v-80.99c0-14.795-11.994-26.789-26.789-26.789h-15.389
				c-14.795,0-26.789,11.994-26.789,26.789c0,0,5.231,32.563,2.861,62.088C310.28,299.689,318.372,308.397,328.599,308.397z"/>
			<path style="fill:#2B3285;" d="M256.22,261.061c0.137,0,0.275-0.002,0.413-0.008l40.303-0.348
				c3.403-0.123,6.563-2.845,8.587-5.585l27.592-32.166c3.671-4.966,2.621-11.969-2.346-15.639
				c-4.964-3.676-11.969-2.623-15.639,2.346l-24.391,28.888l-34.917,4.387c-6.413,0.911-7.866,3.678-7.641,9.85
				C248.399,258.82,250.232,261.061,256.22,261.061z"/>
			<g>
				<g>
					<path style="fill:#1E245A;" d="M333.685,361.152c0.156,0,0.314-0.049,0.448-0.148l31.347-23.137
						c0.336-0.248,0.407-0.721,0.159-1.056c-0.248-0.336-0.72-0.404-1.056-0.159l-31.347,23.137
						c-0.336,0.248-0.407,0.721-0.159,1.056C333.225,361.046,333.453,361.152,333.685,361.152z"/>
					<path style="fill:#1E245A;" d="M368.238,359.959c0.232,0,0.462-0.106,0.609-0.308c0.247-0.336,0.175-0.808-0.161-1.056
						l-31.605-23.219c-0.333-0.245-0.807-0.177-1.056,0.162c-0.246,0.336-0.174,0.808,0.162,1.056l31.605,23.219
						C367.926,359.912,368.083,359.959,368.238,359.959z"/>
				</g>
				<g>
					<path style="fill:#1E245A;" d="M293.092,362.662c0.139,0,0.279-0.038,0.404-0.118l38.897-24.647
						c0.352-0.223,0.457-0.689,0.233-1.041c-0.223-0.352-0.691-0.454-1.041-0.233l-38.897,24.647
						c-0.353,0.223-0.457,0.689-0.233,1.041C292.598,362.538,292.842,362.662,293.092,362.662z"/>
					<path style="fill:#1E245A;" d="M330.665,359.959c0.223,0,0.442-0.097,0.591-0.286c0.26-0.327,0.205-0.802-0.122-1.06
						l-33.114-26.239c-0.324-0.26-0.801-0.207-1.06,0.122c-0.259,0.327-0.205,0.802,0.122,1.06l33.114,26.239
						C330.334,359.906,330.5,359.959,330.665,359.959z"/>
				</g>
				<path style="fill:#D4E1F9;" d="M278.016,402.491c1.754,0,3.345-1.196,3.774-2.976l17.943-73.401
					c0.503-2.087-0.781-4.186-2.866-4.688c-2.083-0.502-4.185,0.779-4.688,2.866l-17.943,73.401
					c-0.503,2.087,0.781,4.186,2.867,4.688C277.408,402.456,277.715,402.491,278.016,402.491z"/>
				<path style="fill:#D4E1F9;" d="M331.779,403.397c1.732-0.276,3.115-1.707,3.259-3.533l6.172-75.31
					c0.168-2.14-1.43-4.011-3.568-4.178c-2.136-0.168-4.01,1.428-4.178,3.568l-6.171,75.31c-0.168,2.14,1.429,4.011,3.568,4.178
					C331.173,403.457,331.481,403.444,331.779,403.397z"/>
				<path style="fill:#D4E1F9;" d="M382.053,402.338c1.578-0.765,2.488-2.535,2.098-4.324l-15.874-73.876
					c-0.458-2.097-2.528-3.426-4.624-2.968c-2.093,0.457-3.426,2.527-2.968,4.624l15.874,73.876
					c0.458,2.097,2.528,3.426,4.624,2.968C381.49,402.572,381.782,402.47,382.053,402.338z"/>
				<g>
					<path style="fill:#FFFFFF;" d="M400.695,240.484c1.406-3.975-1.538-8.14-5.754-8.14l-31.705,0c0,0-20.515-0.001-31.903,45.38
						c0,0-7.071,39.418-36.4,38.1h-12.721c-2.953,0-5.347,2.394-5.347,5.347l0,0c0,2.953,2.394,5.347,5.347,5.347h76.254
						c15.105,0,27.81-11.323,29.543-26.327l2.508-21.718c0.223-1.932,0.555-3.842,0.994-5.736
						C392.896,266.772,396.285,252.951,400.695,240.484z"/>
					<path style="fill:#E8E8E8;" d="M400.695,240.484l-28.974-0.747c-10.444-0.269-20.207,5.371-24.992,14.659
						c-2.293,4.452-4.586,10.194-6.601,17.586c0,0,36.68-27.87,52.865-5.378L400.695,240.484z"/>
					<path style="fill:#E8E8E8;" d="M383.238,313.235c0,0-17.24,10.092-57.05-1.836c0,0-6.545,8.965-19.986,9.915l-15.244,0.01
						c-3.227,0.002-6.319,1.3-8.58,3.602l-1.414,1.439l77.503,0.152C358.467,326.518,374.609,326.844,383.238,313.235z"/>
				</g>
			</g>
			<path style="fill:#E8C0B3;" d="M247.661,250.557c0,0-5.784-5.128-11.039-5.991c-8.354-1.371-16.023,4.418-16.023,11.858v3.885
				h23.696L247.661,250.557z"/>
		</g>
		<path style="fill:#7C91E1;" d="M45.424,403.883h411.367c0.872,0,1.579-0.707,1.579-1.579c0-0.872-0.707-1.579-1.579-1.579H45.424
			c-0.872,0-1.579,0.708-1.579,1.579C43.845,403.175,44.552,403.883,45.424,403.883z"/>
		<g>
			
				<ellipse transform="matrix(0.927 -0.3752 0.3752 0.927 -29.0719 50.694)" style="fill:#7C91E1;" cx="115.646" cy="100.004" rx="32.609" ry="32.61"/>
			<circle style="fill:#FFFFFF;" cx="115.646" cy="100.004" r="25.724"/>
			
				<polyline style="fill:none;stroke:#1C1E1D;stroke-width:1.9075;stroke-linecap:round;stroke-linejoin:round;stroke-miterlimit:10;" points="
				115.646,82.214 115.646,100.004 105.216,106.595 			"/>
		</g>
	</g>
</g>
<g id="DESIGNED_BY_FREEPIK">
	<g>
		<g id="XMLID_319_">
			<g id="XMLID_338_">
				<path id="XMLID_346_" style="fill:#222221;" d="M260.104,465.465c-0.432,0.443-0.803,0.931-1.108,1.453l-0.465-0.241
					c-0.067-0.298-0.349-0.503-0.659-0.466c-0.331,0.039-0.568,0.339-0.529,0.67s0.339,0.568,0.67,0.529
					c0.065-0.008,0.127-0.026,0.184-0.052l0.451,0.234c-0.251,0.554-0.433,1.139-0.539,1.744l0.746,0.132
					c0.23-1.306,0.85-2.507,1.792-3.473L260.104,465.465z"/>
				<path id="XMLID_345_" style="fill:#222221;" d="M265.592,463.163c-0.171,0-0.341,0.006-0.51,0.017l-0.074-0.626
					c0.188-0.149,0.296-0.389,0.266-0.645c-0.046-0.393-0.402-0.674-0.795-0.628s-0.674,0.402-0.628,0.795
					c0.03,0.254,0.189,0.461,0.405,0.564l0.073,0.624c-0.714,0.116-1.403,0.332-2.06,0.646l0.327,0.684
					c0.934-0.447,1.942-0.673,2.995-0.673c0.496,0,0.993,0.053,1.475,0.158l0.161-0.741
					C266.693,463.222,266.142,463.163,265.592,463.163z"/>
				<path id="XMLID_344_" style="fill:#222221;" d="M272.194,465.711c0.331-0.04,0.566-0.341,0.525-0.672
					c-0.04-0.331-0.341-0.566-0.672-0.526c-0.309,0.038-0.535,0.304-0.53,0.609l-0.416,0.363c-0.418-0.43-0.89-0.813-1.408-1.139
					l-0.404,0.641c1.134,0.715,2.021,1.726,2.563,2.925l0.691-0.313c-0.251-0.554-0.568-1.072-0.942-1.545l0.402-0.351
					C272.065,465.716,272.129,465.719,272.194,465.711z"/>
				<path id="XMLID_343_" style="fill:#222221;" d="M265.044,473.372c-0.386,0.023-0.775,0.035-1.157,0.035
					c-0.88,0-1.733-0.061-2.478-0.179c-0.39-0.062-0.846-0.155-1.27-0.292c1.046,1.861,3.069,3.125,5.388,3.125
					c2.855,0,5.262-1.916,5.95-4.504c-0.682,0.449-1.505,0.825-2.459,1.123C267.839,473.047,266.464,473.286,265.044,473.372z"/>
				<path id="XMLID_339_" style="fill:#222221;" d="M265.592,464.68c-3.352,0-6.08,2.666-6.08,5.943
					c0,0.426,0.046,0.849,0.137,1.261c0.674,0.483,2.706,0.89,5.348,0.731c2.879-0.173,5.297-0.957,6.672-2.159
					c-0.005-0.195-0.021-0.39-0.045-0.582C271.244,466.913,268.65,464.68,265.592,464.68z M263.432,471.194
					c-1.02,0-1.85-0.83-1.85-1.85c0-1.02,0.83-1.85,1.85-1.85c1.02,0,1.85,0.83,1.85,1.85
					C265.282,470.365,264.452,471.194,263.432,471.194z M268.17,470.286c-0.75,0-1.36-0.61-1.36-1.36s0.61-1.361,1.36-1.361
					c0.75,0,1.361,0.61,1.361,1.361S268.92,470.286,268.17,470.286z"/>
			</g>
			<path id="XMLID_336_" style="fill:#222221;" d="M281.595,466.547c-0.295-0.116-0.806-0.309-1.382-0.237
				c-0.551,0.069-0.844,0.341-0.844,1.007v0.866h2.228v1.717h-2.228v5.455h-1.932v-5.455h-1.34v-1.717h1.34v-0.888
				c0-1.68,0.896-2.783,2.568-2.783c0.642,0,1.157,0.122,1.59,0.308L281.595,466.547z"/>
			<path id="XMLID_334_" style="fill:#222221;" d="M286.298,469.879c-0.177-0.03-0.358-0.046-0.526-0.046
				c-0.896,0-1.51,0.548-1.51,1.614v3.908h-1.932v-7.172h1.873v0.785c0.451-0.673,1.14-0.977,2.021-0.977
				c0.414,0,0.848,0.128,1.094,0.337L286.298,469.879z"/>
			<path id="XMLID_331_" style="fill:#222221;" d="M293.965,471.757c0,0.222-0.015,0.489-0.037,0.651h-5.085
				c0.207,1.036,0.933,1.488,1.843,1.488c0.622,0,1.295-0.252,1.813-0.688l1.132,1.243c-0.814,0.748-1.85,1.088-3.057,1.088
				c-2.198,0-3.723-1.495-3.723-3.753c0-2.258,1.48-3.797,3.627-3.797C292.544,467.99,293.958,469.522,293.965,471.757z
				 M288.851,471.091h3.175c-0.177-0.918-0.733-1.436-1.562-1.436C289.554,469.655,289.021,470.203,288.851,471.091z"/>
			<path id="XMLID_328_" style="fill:#222221;" d="M301.618,471.757c0,0.222-0.015,0.489-0.037,0.651h-5.085
				c0.207,1.036,0.932,1.488,1.843,1.488c0.622,0,1.295-0.252,1.813-0.688l1.132,1.243c-0.814,0.748-1.85,1.088-3.057,1.088
				c-2.198,0-3.723-1.495-3.723-3.753c0-2.258,1.48-3.797,3.627-3.797C300.197,467.99,301.611,469.522,301.618,471.757z
				 M296.504,471.091h3.175c-0.178-0.918-0.733-1.436-1.562-1.436C297.207,469.655,296.674,470.203,296.504,471.091z"/>
			<path id="XMLID_325_" style="fill:#222221;" d="M309.964,471.764c0,2.154-1.495,3.775-3.471,3.775
				c-0.962,0-1.643-0.378-2.109-0.933v3.708h-1.924v-10.133h1.887v0.792c0.466-0.585,1.155-0.984,2.139-0.984
				C308.469,467.99,309.964,469.61,309.964,471.764z M304.287,471.764c0,1.132,0.747,1.976,1.843,1.976
				c1.14,0,1.85-0.881,1.85-1.976c0-1.095-0.71-1.976-1.85-1.976C305.035,469.788,304.287,470.632,304.287,471.764z"/>
			<path id="XMLID_322_" style="fill:#222221;" d="M313.068,465.836c0,0.696-0.54,1.229-1.236,1.229
				c-0.696,0-1.229-0.533-1.229-1.229c0-0.696,0.533-1.243,1.229-1.243C312.527,464.592,313.068,465.14,313.068,465.836z
				 M312.809,475.354h-1.932v-7.172h1.932V475.354z"/>
			<path id="XMLID_320_" style="fill:#222221;" d="M316.032,470.736l2.702-2.554h2.368l-3.479,3.375l3.501,3.797h-2.376
				l-2.716-2.901v2.901H314.1v-10.658h1.932V470.736z"/>
		</g>
		<g>
			<path style="fill:#222221;" d="M184.412,475.289v-1.055c-0.527,0.718-1.391,1.23-2.388,1.23c-1.846,0-3.149-1.406-3.149-3.706
				c0-2.256,1.289-3.721,3.149-3.721c0.952,0,1.816,0.469,2.388,1.245v-3.765h1.099v9.77H184.412z M184.412,473.37v-3.208
				c-0.395-0.615-1.245-1.143-2.124-1.143c-1.421,0-2.27,1.172-2.27,2.739c0,1.567,0.85,2.724,2.27,2.724
				C183.168,474.483,184.017,473.986,184.412,473.37z"/>
			<path style="fill:#222221;" d="M186.932,471.744c0-2.051,1.465-3.706,3.486-3.706c2.139,0,3.398,1.67,3.398,3.794v0.279h-5.727
				c0.088,1.333,1.025,2.446,2.549,2.446c0.805,0,1.626-0.322,2.182-0.894l0.527,0.718c-0.703,0.703-1.655,1.084-2.812,1.084
				C188.44,475.465,186.932,473.956,186.932,471.744z M190.403,468.947c-1.509,0-2.256,1.274-2.314,2.358h4.643
				C192.718,470.25,192.015,468.947,190.403,468.947z"/>
			<path style="fill:#222221;" d="M194.607,474.351l0.571-0.791c0.469,0.542,1.362,1.011,2.329,1.011c1.084,0,1.67-0.513,1.67-1.216
				c0-1.714-4.38-0.659-4.38-3.281c0-1.098,0.952-2.036,2.636-2.036c1.201,0,2.051,0.454,2.622,1.026l-0.513,0.762
				c-0.424-0.513-1.201-0.894-2.109-0.894c-0.967,0-1.567,0.483-1.567,1.113c0,1.552,4.38,0.527,4.38,3.281
				c0,1.187-0.952,2.138-2.783,2.138C196.306,475.465,195.325,475.113,194.607,474.351z"/>
			<path style="fill:#222221;" d="M201.477,466.471c0-0.41,0.337-0.747,0.732-0.747c0.41,0,0.747,0.337,0.747,0.747
				c0,0.41-0.337,0.732-0.747,0.732C201.814,467.203,201.477,466.881,201.477,466.471z M201.667,475.289v-7.075h1.099v7.075H201.667
				z"/>
			<path style="fill:#222221;" d="M204.582,477.105l0.556-0.82c0.586,0.703,1.289,0.967,2.3,0.967c1.172,0,2.27-0.571,2.27-2.124
				v-1.011c-0.513,0.718-1.377,1.26-2.373,1.26c-1.845,0-3.149-1.377-3.149-3.662c0-2.27,1.289-3.677,3.149-3.677
				c0.952,0,1.802,0.469,2.373,1.245v-1.069h1.098v6.87c0,2.344-1.641,3.076-3.369,3.076
				C206.237,478.16,205.417,477.926,204.582,477.105z M209.709,473.253v-3.091c-0.381-0.615-1.23-1.143-2.109-1.143
				c-1.421,0-2.27,1.128-2.27,2.695c0,1.553,0.849,2.695,2.27,2.695C208.478,474.41,209.328,473.868,209.709,473.253z"/>
			<path style="fill:#222221;" d="M217.413,475.289v-4.629c0-1.245-0.63-1.641-1.582-1.641c-0.865,0-1.685,0.527-2.095,1.099v5.17
				h-1.099v-7.075h1.099v1.025c0.498-0.586,1.465-1.201,2.519-1.201c1.48,0,2.256,0.747,2.256,2.285v4.966H217.413z"/>
			<path style="fill:#222221;" d="M219.932,471.744c0-2.051,1.465-3.706,3.486-3.706c2.139,0,3.398,1.67,3.398,3.794v0.279h-5.727
				c0.088,1.333,1.025,2.446,2.549,2.446c0.806,0,1.626-0.322,2.183-0.894l0.527,0.718c-0.703,0.703-1.655,1.084-2.812,1.084
				C221.441,475.465,219.932,473.956,219.932,471.744z M223.404,468.947c-1.509,0-2.256,1.274-2.314,2.358h4.643
				C225.718,470.25,225.015,468.947,223.404,468.947z"/>
			<path style="fill:#222221;" d="M233.35,475.289v-1.055c-0.527,0.718-1.392,1.23-2.388,1.23c-1.846,0-3.149-1.406-3.149-3.706
				c0-2.256,1.289-3.721,3.149-3.721c0.952,0,1.817,0.469,2.388,1.245v-3.765h1.098v9.77H233.35z M233.35,473.37v-3.208
				c-0.396-0.615-1.245-1.143-2.124-1.143c-1.421,0-2.27,1.172-2.27,2.739c0,1.567,0.849,2.724,2.27,2.724
				C232.105,474.483,232.954,473.986,233.35,473.37z"/>
			<path style="fill:#222221;" d="M239.692,475.289v-9.77h1.098v3.765c0.572-0.776,1.421-1.245,2.388-1.245
				c1.845,0,3.149,1.465,3.149,3.721c0,2.299-1.304,3.706-3.149,3.706c-0.996,0-1.86-0.513-2.388-1.23v1.055H239.692z
				 M242.9,474.483c1.436,0,2.285-1.157,2.285-2.724c0-1.568-0.85-2.739-2.285-2.739c-0.864,0-1.728,0.527-2.109,1.143v3.208
				C241.171,473.986,242.036,474.483,242.9,474.483z"/>
			<path style="fill:#222221;" d="M247.528,477.061c0.161,0.073,0.425,0.117,0.601,0.117c0.483,0,0.805-0.161,1.055-0.747
				l0.469-1.069l-2.959-7.148h1.187l2.358,5.8l2.344-5.8h1.201l-3.545,8.51c-0.425,1.025-1.143,1.421-2.08,1.435
				c-0.234,0-0.601-0.044-0.805-0.103L247.528,477.061z"/>
		</g>
	</g>
</g>
</svg>
